<?xml version="1.0" encoding="UTF-8" standalone="no"?>
<svg width="100%" height="100%" viewBox="0 0 32 32" version="1.1" xmlns="http://www.w3.org/2000/svg" xml:space="preserve" style="fill-rule:evenodd;clip-rule:evenodd;stroke-linejoin:round;stroke-miterlimit:2;">
    <g>
        <path d="M16,3.4C12.6,3.4 9.8,6.2 9.8,9.6L9.8,11.2L13,11.2L13,9.6C13,7.9 14.3,6.6 16,6.6C17.7,6.6 19,7.9 19,9.6L19,11.2L22.2,11.2L22.2,9.6C22.2,6.2 19.4,3.4 16,3.4Z" style="fill:white;fill-rule:nonzero;"/>
        <path d="M10.1,12.8C9,12.8 8.1,13.6 7.9,14.7L5.3,26.6C5,28.1 6.1,29.5 7.6,29.5L24.4,29.5C25.9,29.5 27,28.1 26.7,26.6L24.1,14.7C23.9,13.6 23,12.8 21.9,12.8L10.1,12.8Z" style="fill:white;fill-rule:nonzero;"/>
    </g>
</svg>
